<svg width="297mm" height="210mm" viewBox="0 0 297 210" xmlns="http://www.w3.org/2000/svg">
      <style>
        .title { font: bold 4px sans-serif; }
        .label { font: 2.5px sans-serif; }
        .dim { font: 2px sans-serif; fill: #333; }
        .part-name { font: 1.8px sans-serif; fill: #333; }
      </style>
    <text x="148.5" y="8" text-anchor="middle" class="title">재단 도면 - 판재 6/6</text><rect x="106" y="15" width="84.99999999999999" height="169.99999999999997" fill="#f0f0f0" stroke="#333" stroke-width="0.3"/><line x1="112.9672131147541" y1="15" x2="112.9672131147541" y2="184.99999999999997" stroke="#ddd" stroke-width="0.1" stroke-dasharray="1,1"/><line x1="119.93442622950819" y1="15" x2="119.93442622950819" y2="184.99999999999997" stroke="#ddd" stroke-width="0.1" stroke-dasharray="1,1"/><line x1="126.90163934426229" y1="15" x2="126.90163934426229" y2="184.99999999999997" stroke="#ddd" stroke-width="0.1" stroke-dasharray="1,1"/><line x1="133.86885245901638" y1="15" x2="133.86885245901638" y2="184.99999999999997" stroke="#ddd" stroke-width="0.1" stroke-dasharray="1,1"/><line x1="140.8360655737705" y1="15" x2="140.8360655737705" y2="184.99999999999997" stroke="#ddd" stroke-width="0.1" stroke-dasharray="1,1"/><line x1="147.80327868852459" y1="15" x2="147.80327868852459" y2="184.99999999999997" stroke="#ddd" stroke-width="0.1" stroke-dasharray="1,1"/><line x1="154.77049180327867" y1="15" x2="154.77049180327867" y2="184.99999999999997" stroke="#ddd" stroke-width="0.1" stroke-dasharray="1,1"/><line x1="161.73770491803276" y1="15" x2="161.73770491803276" y2="184.99999999999997" stroke="#ddd" stroke-width="0.1" stroke-dasharray="1,1"/><line x1="168.70491803278688" y1="15" x2="168.70491803278688" y2="184.99999999999997" stroke="#ddd" stroke-width="0.1" stroke-dasharray="1,1"/><line x1="175.67213114754097" y1="15" x2="175.67213114754097" y2="184.99999999999997" stroke="#ddd" stroke-width="0.1" stroke-dasharray="1,1"/><line x1="182.63934426229508" y1="15" x2="182.63934426229508" y2="184.99999999999997" stroke="#ddd" stroke-width="0.1" stroke-dasharray="1,1"/><line x1="189.60655737704917" y1="15" x2="189.60655737704917" y2="184.99999999999997" stroke="#ddd" stroke-width="0.1" stroke-dasharray="1,1"/><line x1="106" y1="21.9672131147541" x2="191" y2="21.9672131147541" stroke="#ddd" stroke-width="0.1" stroke-dasharray="1,1"/><line x1="106" y1="28.934426229508198" x2="191" y2="28.934426229508198" stroke="#ddd" stroke-width="0.1" stroke-dasharray="1,1"/><line x1="106" y1="35.90163934426229" x2="191" y2="35.90163934426229" stroke="#ddd" stroke-width="0.1" stroke-dasharray="1,1"/><line x1="106" y1="42.868852459016395" x2="191" y2="42.868852459016395" stroke="#ddd" stroke-width="0.1" stroke-dasharray="1,1"/><line x1="106" y1="49.83606557377049" x2="191" y2="49.83606557377049" stroke="#ddd" stroke-width="0.1" stroke-dasharray="1,1"/><line x1="106" y1="56.803278688524586" x2="191" y2="56.803278688524586" stroke="#ddd" stroke-width="0.1" stroke-dasharray="1,1"/><line x1="106" y1="63.77049180327868" x2="191" y2="63.77049180327868" stroke="#ddd" stroke-width="0.1" stroke-dasharray="1,1"/><line x1="106" y1="70.73770491803278" x2="191" y2="70.73770491803278" stroke="#ddd" stroke-width="0.1" stroke-dasharray="1,1"/><line x1="106" y1="77.70491803278688" x2="191" y2="77.70491803278688" stroke="#ddd" stroke-width="0.1" stroke-dasharray="1,1"/><line x1="106" y1="84.67213114754097" x2="191" y2="84.67213114754097" stroke="#ddd" stroke-width="0.1" stroke-dasharray="1,1"/><line x1="106" y1="91.63934426229507" x2="191" y2="91.63934426229507" stroke="#ddd" stroke-width="0.1" stroke-dasharray="1,1"/><line x1="106" y1="98.60655737704917" x2="191" y2="98.60655737704917" stroke="#ddd" stroke-width="0.1" stroke-dasharray="1,1"/><line x1="106" y1="105.57377049180327" x2="191" y2="105.57377049180327" stroke="#ddd" stroke-width="0.1" stroke-dasharray="1,1"/><line x1="106" y1="112.54098360655738" x2="191" y2="112.54098360655738" stroke="#ddd" stroke-width="0.1" stroke-dasharray="1,1"/><line x1="106" y1="119.50819672131148" x2="191" y2="119.50819672131148" stroke="#ddd" stroke-width="0.1" stroke-dasharray="1,1"/><line x1="106" y1="126.47540983606558" x2="191" y2="126.47540983606558" stroke="#ddd" stroke-width="0.1" stroke-dasharray="1,1"/><line x1="106" y1="133.44262295081967" x2="191" y2="133.44262295081967" stroke="#ddd" stroke-width="0.1" stroke-dasharray="1,1"/><line x1="106" y1="140.40983606557378" x2="191" y2="140.40983606557378" stroke="#ddd" stroke-width="0.1" stroke-dasharray="1,1"/><line x1="106" y1="147.37704918032787" x2="191" y2="147.37704918032787" stroke="#ddd" stroke-width="0.1" stroke-dasharray="1,1"/><line x1="106" y1="154.34426229508196" x2="191" y2="154.34426229508196" stroke="#ddd" stroke-width="0.1" stroke-dasharray="1,1"/><line x1="106" y1="161.31147540983605" x2="191" y2="161.31147540983605" stroke="#ddd" stroke-width="0.1" stroke-dasharray="1,1"/><line x1="106" y1="168.27868852459014" x2="191" y2="168.27868852459014" stroke="#ddd" stroke-width="0.1" stroke-dasharray="1,1"/><line x1="106" y1="175.24590163934423" x2="191" y2="175.24590163934423" stroke="#ddd" stroke-width="0.1" stroke-dasharray="1,1"/><line x1="106" y1="182.2131147540983" x2="191" y2="182.2131147540983" stroke="#ddd" stroke-width="0.1" stroke-dasharray="1,1"/><rect x="106" y="15" width="39.295081967213115" height="37.0655737704918" fill="#ffe4c4" stroke="#333" stroke-width="0.2"/><text x="125.64754098360656" y="32.5327868852459" text-anchor="middle" class="part-name">하부 바닥판</text><text x="125.64754098360656" y="35.5327868852459" text-anchor="middle" class="dim">564 x 532</text><rect x="106" y="52.34426229508196" width="39.295081967213115" height="37.0655737704918" fill="#ffe4c4" stroke="#333" stroke-width="0.2"/><text x="125.64754098360656" y="69.87704918032786" text-anchor="middle" class="part-name">상판</text><text x="125.64754098360656" y="72.87704918032786" text-anchor="middle" class="dim">564 x 532</text><rect x="106" y="89.68852459016392" width="39.15573770491803" height="37.0655737704918" fill="#ffdab9" stroke="#333" stroke-width="0.2"/><text x="125.57786885245902" y="107.22131147540982" text-anchor="middle" class="part-name">가전 거치대</text><text x="125.57786885245902" y="110.22131147540982" text-anchor="middle" class="dim">562 x 532</text><line x1="106" y1="189.99999999999997" x2="191" y2="189.99999999999997" stroke="#333" stroke-width="0.2" marker-start="url(#arrow)" marker-end="url(#arrow)"/><text x="148.5" y="193.99999999999997" text-anchor="middle" class="dim">1220mm</text><line x1="196" y1="15" x2="196" y2="184.99999999999997" stroke="#333" stroke-width="0.2"/><text x="199" y="99.99999999999999" text-anchor="middle" transform="rotate(90 199 99.99999999999999)" class="dim">2440mm</text><rect x="247" y="185" width="45" height="20" fill="white" stroke="#333" stroke-width="0.2"/><text x="269.5" y="191" text-anchor="middle" class="label">판재 6</text><text x="269.5" y="196" text-anchor="middle" class="dim">부재: 3개</text><text x="269.5" y="201" text-anchor="middle" class="dim">효율: 30.2%</text></svg>