<svg width="210mm" height="297mm" viewBox="0 0 210 297" xmlns="http://www.w3.org/2000/svg">
      <style>
        .title { font: bold 5px sans-serif; }
        .subtitle { font: 3.5px sans-serif; fill: #666; }
        .dim { font: 2.5px sans-serif; fill: #333; }
        .label { font: 2px sans-serif; fill: #666; }
        .part-label { font: 2px sans-serif; fill: #0066cc; }
        .install-note { font: 2px sans-serif; fill: #cc0000; }
      </style>
    <text x="105" y="10" text-anchor="middle" class="title">설치 도면 - 키큰장</text><text x="105" y="16" text-anchor="middle" class="subtitle">600 x 2100 x 550 mm</text><path d="M 90.1538502208382 208.5
                       L 119.8461497791618 191.35714285714286
                       L 119.8461497791618 71.35714285714286
                       L 90.1538502208382 88.5
                       Z" fill="#f5f5dc" stroke="#333" stroke-width="0.3"/><path d="M 90.1538502208382 88.5
                     L 119.8461497791618 71.35714285714286
                     L 147.06409104095846 55.64285714285715
                     L 117.37179148263483 72.78571428571429
                     Z" fill="#e8e8e8" stroke="#333" stroke-width="0.3"/><path d="M 119.8461497791618 191.35714285714286
                      L 147.06409104095846 175.64285714285714
                      L 147.06409104095846 55.64285714285715
                      L 119.8461497791618 71.35714285714286
                      Z" fill="#d0d0d0" stroke="#333" stroke-width="0.3"/><path d="M 91.1538502208382 207.5
                        L 104.13397459621557 199.42857142857144
                        L 104.13397459621557 82.42857142857144
                        L 91.1538502208382 90.5
                        Z" fill="#d4a574" stroke="#8b7355" stroke-width="0.2"/><circle cx="102.03695593990895" cy="140.42857142857144" r="1" fill="#666"/><path d="M 106 198.92857142857144
                        L 118.98012437537737 190.8571428571429
                        L 118.98012437537737 73.85714285714289
                        L 106 81.92857142857144
                        Z" fill="#d4a574" stroke="#8b7355" stroke-width="0.2"/><circle cx="116.88310571907076" cy="131.8571428571429" r="1" fill="#666"/><line x1="90.1538502208382" y1="213.5" x2="119.8461497791618" y2="196.35714285714286" stroke="#333" stroke-width="0.15"/><text x="105" y="208.92857142857144" text-anchor="middle" class="dim">600</text><line x1="85.1538502208382" y1="208.5" x2="85.1538502208382" y2="88.5" stroke="#333" stroke-width="0.15"/><text x="82.1538502208382" y="148.5" text-anchor="middle" transform="rotate(-90 82.1538502208382 148.5)" class="dim">2100</text><line x1="90.1538502208382" y1="85.5" x2="117.37179148263483" y2="69.78571428571429" stroke="#333" stroke-width="0.15"/><text x="103.76282085173652" y="75.64285714285714" text-anchor="middle" class="dim">550</text><circle cx="75" cy="118.5" r="3" fill="#cc0000"/><text x="75" y="119.5" text-anchor="middle" fill="white" font-size="2">1</text><text x="80" y="118.5" class="install-note">벽면 고정</text><circle cx="135" cy="168.5" r="3" fill="#cc0000"/><text x="135" y="169.5" text-anchor="middle" fill="white" font-size="2">2</text><text x="140" y="168.5" class="install-note">수평 확인</text><circle cx="105" cy="188.5" r="3" fill="#cc0000"/><text x="105" y="189.5" text-anchor="middle" fill="white" font-size="2">3</text><text x="110" y="188.5" class="install-note">도어 조절</text><rect x="155" y="267" width="50" height="25" fill="white" stroke="#333" stroke-width="0.2"/><text x="158" y="272" class="label">모듈: 키큰장</text><text x="158" y="277" class="label">번호: 1</text><text x="158" y="282" class="label">타입: 설치</text><text x="158" y="287" class="label">날짜: 2026. 1. 3.</text></svg>