<svg width="210mm" height="297mm" viewBox="0 0 210 297" xmlns="http://www.w3.org/2000/svg">
      <style>
        .title { font: bold 5px sans-serif; }
        .subtitle { font: 3.5px sans-serif; fill: #666; }
        .dim { font: 2.5px sans-serif; fill: #333; }
        .label { font: 2px sans-serif; fill: #666; }
        .part-label { font: 2px sans-serif; fill: #0066cc; }
        .install-note { font: 2px sans-serif; fill: #cc0000; }
      </style>
    <text x="105" y="10" text-anchor="middle" class="title">제작 도면 - 냉장고</text><text x="105" y="16" text-anchor="middle" class="subtitle">912 x 1853 x 688 mm</text><path d="M 79.42584452504884 208.5
                       L 130.57415547495114 178.96950890447923
                       L 130.57415547495114 58.96950890447923
                       L 79.42584452504884 88.5
                       Z" fill="#f5f5dc" stroke="#333" stroke-width="0.3"/><path d="M 79.42584452504884 88.5
                     L 130.57415547495114 58.96950890447923
                     L 169.15972338452656 36.69212088505128
                     L 118.01141243462426 66.22261198057205
                     Z" fill="#e8e8e8" stroke="#333" stroke-width="0.3"/><path d="M 130.57415547495114 178.96950890447923
                      L 169.15972338452656 156.69212088505128
                      L 169.15972338452656 36.69212088505128
                      L 130.57415547495114 58.96950890447923
                      Z" fill="#d0d0d0" stroke="#333" stroke-width="0.3"/><line x1="79.42584452504884" y1="213.5" x2="130.57415547495114" y2="183.96950890447923" stroke="#333" stroke-width="0.15"/><text x="105" y="202.7347544522396" text-anchor="middle" class="dim">912</text><line x1="74.42584452504884" y1="208.5" x2="74.42584452504884" y2="88.5" stroke="#333" stroke-width="0.15"/><text x="71.42584452504884" y="148.5" text-anchor="middle" transform="rotate(-90 71.42584452504884 148.5)" class="dim">1853</text><line x1="79.42584452504884" y1="85.5" x2="118.01141243462426" y2="63.222611980572054" stroke="#333" stroke-width="0.15"/><text x="98.71862847983655" y="72.36130599028603" text-anchor="middle" class="dim">688</text><text x="85" y="148.5" text-anchor="middle" class="part-label">좌측판</text><text x="125" y="138.5" text-anchor="middle" class="part-label">우측판</text><text x="105" y="103.5" text-anchor="middle" class="part-label">상판</text><text x="105" y="183.5" text-anchor="middle" class="part-label">하판</text><text x="120" y="128.5" text-anchor="middle" class="part-label">뒷판</text><rect x="155" y="267" width="50" height="25" fill="white" stroke="#333" stroke-width="0.2"/><text x="158" y="272" class="label">모듈: 냉장고</text><text x="158" y="277" class="label">번호: 2</text><text x="158" y="282" class="label">타입: 제작</text><text x="158" y="287" class="label">날짜: 2026. 1. 3.</text></svg>