<svg width="210mm" height="297mm" viewBox="0 0 210 297" xmlns="http://www.w3.org/2000/svg">
      <style>
        .title { font: bold 5px sans-serif; }
        .subtitle { font: 3.5px sans-serif; fill: #666; }
        .dim { font: 2.5px sans-serif; fill: #333; }
        .label { font: 2px sans-serif; fill: #666; }
        .part-label { font: 2px sans-serif; fill: #0066cc; }
        .install-note { font: 2px sans-serif; fill: #cc0000; }
      </style>
    <text x="105" y="10" text-anchor="middle" class="title">제작 도면 - 홈카페장</text><text x="105" y="16" text-anchor="middle" class="subtitle">600 x 1400 x 550 mm</text><path d="M 82.73077533125729 208.5
                       L 127.26922466874271 182.78571428571428
                       L 127.26922466874271 62.78571428571428
                       L 82.73077533125729 88.5
                       Z" fill="#f5f5dc" stroke="#333" stroke-width="0.3"/><path d="M 82.73077533125729 88.5
                     L 127.26922466874271 62.78571428571428
                     L 168.09613656143767 39.21428571428571
                     L 123.55768722395226 64.92857142857143
                     Z" fill="#e8e8e8" stroke="#333" stroke-width="0.3"/><path d="M 127.26922466874271 182.78571428571428
                      L 168.09613656143767 159.21428571428572
                      L 168.09613656143767 39.21428571428571
                      L 127.26922466874271 62.78571428571428
                      Z" fill="#d0d0d0" stroke="#333" stroke-width="0.3"/><line x1="82.73077533125729" y1="213.5" x2="127.26922466874271" y2="187.78571428571428" stroke="#333" stroke-width="0.15"/><text x="105" y="204.64285714285714" text-anchor="middle" class="dim">600</text><line x1="77.73077533125729" y1="208.5" x2="77.73077533125729" y2="88.5" stroke="#333" stroke-width="0.15"/><text x="74.73077533125729" y="148.5" text-anchor="middle" transform="rotate(-90 74.73077533125729 148.5)" class="dim">1400</text><line x1="82.73077533125729" y1="85.5" x2="123.55768722395226" y2="61.92857142857143" stroke="#333" stroke-width="0.15"/><text x="103.14423127760477" y="71.71428571428572" text-anchor="middle" class="dim">550</text><text x="85" y="148.5" text-anchor="middle" class="part-label">좌측판</text><text x="125" y="138.5" text-anchor="middle" class="part-label">우측판</text><text x="105" y="103.5" text-anchor="middle" class="part-label">상판</text><text x="105" y="183.5" text-anchor="middle" class="part-label">하판</text><text x="120" y="128.5" text-anchor="middle" class="part-label">뒷판</text><rect x="155" y="267" width="50" height="25" fill="white" stroke="#333" stroke-width="0.2"/><text x="158" y="272" class="label">모듈: 홈카페장</text><text x="158" y="277" class="label">번호: 3</text><text x="158" y="282" class="label">타입: 제작</text><text x="158" y="287" class="label">날짜: 2026. 1. 3.</text></svg>